<svg xmlns="http://www.w3.org/2000/svg" width="304.963" height="73.305" viewBox="0 0 304.963 73.305"><defs><style>.a{fill:#fff;}.b{fill:#31363e;font-size:60px;font-family:Exo2-Bold, "Exo 2";font-weight:700;letter-spacing:0.016em;}.c{fill:#d38994;}</style></defs><g transform="translate(-1494.037 -179)"><g transform="translate(1474.993 158.396)"><path class="a" d="M99.083,37.549c-7.988.454-23.865,2.1-33.666,8.1a2.24,2.24,0,0,0-1.06,1.92v53.04a2.307,2.307,0,0,0,3.394,1.967c10.084-5.076,24.668-6.46,31.88-6.84a4.546,4.546,0,0,0,4.376-4.469V42.025A4.57,4.57,0,0,0,99.083,37.549Zm-40.449,8.1c-9.8-6-25.677-7.649-33.665-8.1a4.572,4.572,0,0,0-4.924,4.476V91.272a4.544,4.544,0,0,0,4.376,4.469c7.213.379,21.806,1.766,31.89,6.844a2.3,2.3,0,0,0,3.383-1.962V47.547A2.193,2.193,0,0,0,58.633,45.653Z" transform="translate(-1 -8.937)"/></g><text class="b" transform="translate(1543 240)"><tspan x="0" y="0">EDU</tspan><tspan class="c" y="0">CELL</tspan></text></g></svg>