<svg xmlns="http://www.w3.org/2000/svg" xmlns:xlink="http://www.w3.org/1999/xlink" width="93.122" height="72.43" viewBox="0 0 93.122 72.43"><defs><style>.a,.b{fill:none;}.a{clip-rule:evenodd;}.c{clip-path:url(#a);}.d{clip-path:url(#b);}.e{fill:#d18893;}.f{clip-path:url(#c);}.g{fill:#fdfdfd;}.h{clip-path:url(#e);}</style><clipPath id="a"><path class="a" d="M510.894-1210.028c-10.87-6.655-28.48-8.483-37.339-8.988a5.071,5.071,0,0,0-5.461,4.964v54.621a5.039,5.039,0,0,0,4.852,4.957c8,.421,24.185,1.959,35.37,7.59a2.551,2.551,0,0,0,3.753-2.176v-58.868a2.434,2.434,0,0,0-1.176-2.1m44.863-8.988c-8.86.5-26.47,2.333-37.34,8.988a2.485,2.485,0,0,0-1.176,2.129v58.829a2.559,2.559,0,0,0,3.764,2.181c11.185-5.63,27.36-7.165,35.358-7.586a5.043,5.043,0,0,0,4.853-4.957v-54.62a5.069,5.069,0,0,0-5.46-4.964" transform="translate(-468.094 1219.025)"/></clipPath><clipPath id="b"><path class="b" d="M-30,375.2H1159.559V-1286H-30Z" transform="translate(30 1286)"/></clipPath><clipPath id="c"><path class="a" d="M504.615-1169.832l.488,7.806q-6.552.7-22.3.7a10.919,10.919,0,0,1-7.667-2.614,9.316,9.316,0,0,1-2.927-7.075v-29.135a9.319,9.319,0,0,1,2.927-7.075,10.919,10.919,0,0,1,7.667-2.614q15.751,0,22.3.7l-.488,7.876H486.144a3.265,3.265,0,0,0-2.509.836,3.952,3.952,0,0,0-.767,2.718v7.319h19.168v7.667H482.868v9.27a4.076,4.076,0,0,0,.767,2.788,3.264,3.264,0,0,0,2.509.836Z" transform="translate(-472.204 1209.84)"/></clipPath><clipPath id="e"><path class="a" d="M547.818-1170.021l.906,7.876a52.494,52.494,0,0,1-15.4,1.95q-11.152,0-15.683-5.575t-4.531-19.307q0-13.73,4.531-19.307t15.683-5.576a59.123,59.123,0,0,1,14.428,1.6l-.906,7.946q-5.646-.347-13.522-.349-5.227,0-7.144,3.311t-1.917,12.372q0,9.063,1.917,12.372t7.144,3.311a122.307,122.307,0,0,0,14.5-.627" transform="translate(-513.107 1209.959)"/></clipPath></defs><g class="c"><g class="d" transform="translate(-578.625 -77.804)"><path class="e" d="M463.094-1224.025H567.833v84.047H463.094Z" transform="translate(109.723 1296.02)"/></g></g><g class="f" transform="translate(4.775 10.669)"><g class="d" transform="translate(-583.4 -88.473)"><path class="g" d="M467.2-1214.84H511.72v60.128H467.2Z" transform="translate(110.387 1297.505)"/></g></g><g class="h" transform="translate(52.291 10.531)"><g class="d" transform="translate(-630.916 -88.335)"><path class="g" d="M508.107-1214.959h47.234v61.382H508.107Z" transform="translate(117.001 1297.486)"/></g></g></svg>